<?xml version="1.0" encoding="UTF-8"?> <svg xmlns="http://www.w3.org/2000/svg" width="512" height="512" viewBox="0 0 512 512" fill="none"> <g clip-path="url(#clip0_13779_85954)"> <rect width="512" height="512" rx="256" fill="#EC433D"></rect> <path fill-rule="evenodd" clip-rule="evenodd" d="M433.22 337.157C444.212 313.041 450.438 286.279 450.684 258.067C451.579 155.554 373.205 70.8271 272.775 62.1048L272.056 112.28C344.97 120.471 401.34 182.653 400.686 257.63C400.514 277.309 396.43 296.039 389.178 313.086L433.22 337.157ZM372.867 341.793L415.948 367.496C380.398 418.664 320.993 451.942 253.99 451.357C237.662 451.215 221.82 449.07 206.695 445.157L222.752 397.606C232.936 399.971 243.536 401.264 254.426 401.359C303.019 401.783 346.238 378.255 372.867 341.793ZM173.815 433.396L191.651 386.493C152.17 367.029 122.874 330.14 113.711 285.951L63.8451 291.492C75.3221 354.568 117.179 407.161 173.815 433.396ZM110.729 253.053L60.6916 256.709C60.6905 256.028 60.693 255.346 60.6989 254.663C61.1602 201.806 82.6097 154.045 117.067 119.222L150.2 156.882C126.427 182.079 111.569 215.807 110.729 253.053ZM143.749 96.6785L175.448 135.575C194.07 123.18 215.713 114.98 239.016 112.312L237.842 62.1688C203.053 65.3244 170.871 77.6309 143.749 96.6785Z" fill="white"></path> </g> <defs> <clipPath id="clip0_13779_85954"> <rect width="512" height="512" fill="white"></rect> </clipPath> </defs> </svg> 